<?xml version="1.0" encoding="UTF-8" standalone="no"?>
<!-- Created with Inkscape (http://www.inkscape.org/) -->

<svg
   xmlns:dc="http://purl.org/dc/elements/1.1/"
   xmlns:cc="http://creativecommons.org/ns#"
   xmlns:rdf="http://www.w3.org/1999/02/22-rdf-syntax-ns#"
   xmlns:svg="http://www.w3.org/2000/svg"
   xmlns="http://www.w3.org/2000/svg"
   xmlns:sodipodi="http://sodipodi.sourceforge.net/DTD/sodipodi-0.dtd"
   xmlns:inkscape="http://www.inkscape.org/namespaces/inkscape"
   width="16px"
   height="16px"
   id="svg2985"
   version="1.1"
   inkscape:version="0.48.4 r9939"
   sodipodi:docname="dog.svg">
  <defs
     id="defs2987" />
  <sodipodi:namedview
     id="base"
     pagecolor="#ffffff"
     bordercolor="#666666"
     borderopacity="1.0"
     inkscape:pageopacity="0.0"
     inkscape:pageshadow="2"
     inkscape:zoom="22.197802"
     inkscape:cx="-7.8574259"
     inkscape:cy="8"
     inkscape:current-layer="layer1"
     showgrid="true"
     inkscape:grid-bbox="true"
     inkscape:document-units="px"
     inkscape:window-width="1674"
     inkscape:window-height="619"
     inkscape:window-x="0"
     inkscape:window-y="70"
     inkscape:window-maximized="0"
     showguides="true"
     inkscape:guide-bbox="true" />
  <metadata
     id="metadata2990">
    <rdf:RDF>
      <cc:Work
         rdf:about="">
        <dc:format>image/svg+xml</dc:format>
        <dc:type
           rdf:resource="http://purl.org/dc/dcmitype/StillImage" />
        <dc:title />
      </cc:Work>
    </rdf:RDF>
  </metadata>
  <g
     id="layer1"
     inkscape:label="Layer 1"
     inkscape:groupmode="layer">
    <path
       sodipodi:type="arc"
       style="fill:#000000;fill-opacity:1;stroke:#000000;stroke-width:0.5;stroke-miterlimit:4;stroke-opacity:1;stroke-dasharray:none"
       id="path3012"
       sodipodi:cx="7.1853962"
       sodipodi:cy="5.2106433"
       sodipodi:rx="0.83341587"
       sodipodi:ry="0.96856439"
       d="m 8.0188121,5.2106433 a 0.83341587,0.96856439 0 1 1 -1.6668318,0 0.83341587,0.96856439 0 1 1 1.6668318,0 z"
       transform="translate(0.67574258,5.6311882)" />
    <rect
       style="fill:#000000;fill-opacity:1;stroke:#000000;stroke-width:0.43342689;stroke-miterlimit:4;stroke-opacity:1;stroke-dasharray:none"
       id="rect3018"
       width="1.2378603"
       height="3.4002364"
       x="7.2196836"
       y="6.8216639" />
    <path
       sodipodi:type="arc"
       style="fill:#000000;fill-opacity:1;stroke:#000000;stroke-width:0.5;stroke-miterlimit:4;stroke-opacity:1;stroke-dasharray:none"
       id="path3050"
       sodipodi:cx="2.3876238"
       sodipodi:cy="7.5532179"
       sodipodi:rx="0.45049506"
       sodipodi:ry="0.33787128"
       d="m 2.8381189,7.5532179 a 0.45049506,0.33787128 0 1 1 -0.9009902,0 0.45049506,0.33787128 0 1 1 0.9009902,0 z"
       transform="matrix(1.2106052,0,0,0.94747365,4.9256193,-0.50424712)" />
    <path
       sodipodi:type="arc"
       style="fill:#000000;fill-opacity:1;stroke:#000000;stroke-width:0.5;stroke-miterlimit:4;stroke-opacity:1;stroke-dasharray:none"
       id="path3052"
       sodipodi:cx="5.2257428"
       sodipodi:cy="7.1477723"
       sodipodi:rx="0.18019803"
       sodipodi:ry="0.29282179"
       d="m 5.4059408,7.1477723 a 0.18019803,0.29282179 0 1 1 -0.360396,0 0.18019803,0.29282179 0 1 1 0.360396,0 z"
       transform="translate(1.8470297,-0.22524752)" />
    <path
       sodipodi:type="arc"
       style="fill:#000000;fill-opacity:1;stroke:#000000;stroke-width:0.5;stroke-miterlimit:4;stroke-opacity:1;stroke-dasharray:none"
       id="path3052-9"
       sodipodi:cx="5.2257428"
       sodipodi:cy="7.1477723"
       sodipodi:rx="0.18019803"
       sodipodi:ry="0.29282179"
       d="m 5.4059408,7.1477723 a 0.18019803,0.29282179 0 1 1 -0.360396,0 0.18019803,0.29282179 0 1 1 0.360396,0 z"
       transform="translate(3.3787127,-0.20272289)" />
    <path
       sodipodi:type="arc"
       style="fill:#000000;fill-opacity:1;stroke:#000000;stroke-width:0.5;stroke-miterlimit:4;stroke-opacity:1;stroke-dasharray:none"
       id="path3052-8"
       sodipodi:cx="5.2257428"
       sodipodi:cy="7.1477723"
       sodipodi:rx="0.18019803"
       sodipodi:ry="0.29282179"
       d="m 5.4059408,7.1477723 a 0.18019803,0.29282179 0 1 1 -0.360396,0 0.18019803,0.29282179 0 1 1 0.360396,0 z"
       transform="translate(1.80198,3.3111385)" />
    <path
       sodipodi:type="arc"
       style="fill:#000000;fill-opacity:1;stroke:#000000;stroke-width:0.5;stroke-miterlimit:4;stroke-opacity:1;stroke-dasharray:none"
       id="path3052-8-1"
       sodipodi:cx="5.2257428"
       sodipodi:cy="7.1477723"
       sodipodi:rx="0.18019803"
       sodipodi:ry="0.29282179"
       d="m 5.4059408,7.1477723 a 0.18019803,0.29282179 0 1 1 -0.360396,0 0.18019803,0.29282179 0 1 1 0.360396,0 z"
       transform="translate(3.4688117,3.2210395)" />
    <path
       style="fill:none;stroke:#000000;stroke-width:1px;stroke-linecap:butt;stroke-linejoin:miter;stroke-opacity:1"
       d="m 7.7935644,10.458911 0,1.396535"
       id="path3108"
       inkscape:connector-curvature="0" />
    <path
       style="fill:#000000;stroke:#000000;stroke-width:0.10000000000000001;stroke-linecap:butt;stroke-linejoin:miter;stroke-opacity:1;stroke-miterlimit:4;stroke-dasharray:none;fill-opacity:1;"
       d="m 8.5143565,6.3594064 0,0 -0.360396,-0.8108911 -0.6306931,-0.04505 -0.3153465,0.8559406"
       id="path3886"
       inkscape:connector-curvature="0" />
    <path
       style="fill:#000000;stroke:#000000;stroke-width:0.10000000000000001;stroke-linecap:butt;stroke-linejoin:miter;stroke-opacity:1;stroke-miterlimit:4;stroke-dasharray:none;fill-opacity:1"
       d="m 7.6584159,4.7376237 0.270297,0 L 8.19901,5.3232672 8.6044555,5.6386138 8.0638615,5.9990098 7.3881189,6.0440593 6.9826733,5.6386138 7.2529704,5.4584157 z"
       id="path3007"
       inkscape:connector-curvature="0" />
    <path
       style="fill:#000000;stroke:#000000;stroke-width:0.10000000000000001;stroke-linecap:butt;stroke-linejoin:miter;stroke-opacity:1;stroke-miterlimit:4;stroke-dasharray:none;fill-opacity:1"
       d="M 7.3881189,5.9539603 6.8925743,5.4584157 6.9376238,5.0079207 7.8386139,5.7287128 8.6945545,5.0980197 8.6044555,5.6836633 8.108911,6.0440593 z"
       id="path3777"
       inkscape:connector-curvature="0" />
    <path
       sodipodi:type="arc"
       style="fill:#000000;fill-opacity:1;stroke:#000000;stroke-width:0.1;stroke-miterlimit:4;stroke-opacity:1;stroke-dasharray:none"
       id="path3779"
       sodipodi:cx="-13.424752"
       sodipodi:cy="6.3143563"
       sodipodi:rx="0.13514851"
       sodipodi:ry="0.13514851"
       d="m -13.289604,6.3143563 a 0.13514851,0.13514851 0 1 1 -0.270297,0 0.13514851,0.13514851 0 1 1 0.270297,0 z"
       transform="translate(21.218317,-1.6668317)" />
    <path
       style="fill:none;stroke:#000000;stroke-width:0.40000001;stroke-linecap:butt;stroke-linejoin:miter;stroke-miterlimit:4;stroke-opacity:1;stroke-dasharray:none"
       d="m 7.8836634,10.684158 0,1.036139 -0.4955445,1.306436 0,0"
       id="path3781"
       inkscape:connector-curvature="0" />
  </g>
</svg>
