<?xml version="1.0" encoding="UTF-8" standalone="no"?>
<!-- Created with Inkscape (http://www.inkscape.org/) -->

<svg
   xmlns:dc="http://purl.org/dc/elements/1.1/"
   xmlns:cc="http://creativecommons.org/ns#"
   xmlns:rdf="http://www.w3.org/1999/02/22-rdf-syntax-ns#"
   xmlns:svg="http://www.w3.org/2000/svg"
   xmlns="http://www.w3.org/2000/svg"
   xmlns:sodipodi="http://sodipodi.sourceforge.net/DTD/sodipodi-0.dtd"
   xmlns:inkscape="http://www.inkscape.org/namespaces/inkscape"
   width="32px"
   height="32px"
   id="svg3963"
   version="1.1"
   inkscape:version="0.48.4 r9939"
   sodipodi:docname="New document 4">
  <defs
     id="defs3965" />
  <sodipodi:namedview
     id="base"
     pagecolor="#ffffff"
     bordercolor="#666666"
     borderopacity="1.0"
     inkscape:pageopacity="0.0"
     inkscape:pageshadow="2"
     inkscape:zoom="11.197802"
     inkscape:cx="16"
     inkscape:cy="16"
     inkscape:current-layer="layer1"
     showgrid="true"
     inkscape:grid-bbox="true"
     inkscape:document-units="px"
     inkscape:window-width="1012"
     inkscape:window-height="656"
     inkscape:window-x="96"
     inkscape:window-y="177"
     inkscape:window-maximized="0" />
  <metadata
     id="metadata3968">
    <rdf:RDF>
      <cc:Work
         rdf:about="">
        <dc:format>image/svg+xml</dc:format>
        <dc:type
           rdf:resource="http://purl.org/dc/dcmitype/StillImage" />
        <dc:title></dc:title>
      </cc:Work>
    </rdf:RDF>
  </metadata>
  <g
     id="layer1"
     inkscape:label="Layer 1"
     inkscape:groupmode="layer">
    <g
       id="g3922"
       transform="matrix(4,0,0,4,-15.102062,-17.48813)"
       inkscape:export-xdpi="90"
       inkscape:export-ydpi="90"
       inkscape:export-filename="/home/jay/primegamemobile/www/asset/dog.png">
      <path
         transform="translate(0.67574258,5.6311882)"
         d="m 8.0188121,5.2106433 c 0,0.5349233 -0.373133,0.9685644 -0.8334159,0.9685644 -0.4602829,0 -0.8334159,-0.4336411 -0.8334159,-0.9685644 0,-0.5349234 0.373133,-0.9685644 0.8334159,-0.9685644 0.4602829,0 0.8334159,0.433641 0.8334159,0.9685644 z"
         sodipodi:ry="0.96856439"
         sodipodi:rx="0.83341587"
         sodipodi:cy="5.2106433"
         sodipodi:cx="7.1853962"
         id="path3012"
         style="fill:#000000;fill-opacity:1;stroke:#000000;stroke-width:0.5;stroke-miterlimit:4;stroke-opacity:1;stroke-dasharray:none"
         sodipodi:type="arc" />
      <g
         id="g3919">
        <rect
           style="fill:#000000;fill-opacity:1;stroke:#000000;stroke-width:0.43342689;stroke-miterlimit:4;stroke-opacity:1;stroke-dasharray:none"
           id="rect3018"
           width="1.2378603"
           height="3.4002364"
           x="7.2196836"
           y="6.8216639" />
      </g>
      <path
         transform="matrix(1.2106052,0,0,0.94747365,4.9256193,-0.50424712)"
         d="m 2.8381189,7.5532179 c 0,0.1866011 -0.2016936,0.3378713 -0.4504951,0.3378713 -0.2488016,0 -0.4504951,-0.1512702 -0.4504951,-0.3378713 0,-0.1866012 0.2016935,-0.3378713 0.4504951,-0.3378713 0.2488015,0 0.4504951,0.1512701 0.4504951,0.3378713 z"
         sodipodi:ry="0.33787128"
         sodipodi:rx="0.45049506"
         sodipodi:cy="7.5532179"
         sodipodi:cx="2.3876238"
         id="path3050"
         style="fill:#000000;fill-opacity:1;stroke:#000000;stroke-width:0.5;stroke-miterlimit:4;stroke-opacity:1;stroke-dasharray:none"
         sodipodi:type="arc" />
      <path
         transform="translate(1.8470297,-0.22524752)"
         d="m 5.4059408,7.1477723 c 0,0.161721 -0.080677,0.2928218 -0.180198,0.2928218 -0.099521,0 -0.180198,-0.1311008 -0.180198,-0.2928218 0,-0.161721 0.080677,-0.2928218 0.180198,-0.2928218 0.099521,0 0.180198,0.1311008 0.180198,0.2928218 z"
         sodipodi:ry="0.29282179"
         sodipodi:rx="0.18019803"
         sodipodi:cy="7.1477723"
         sodipodi:cx="5.2257428"
         id="path3052"
         style="fill:#000000;fill-opacity:1;stroke:#000000;stroke-width:0.5;stroke-miterlimit:4;stroke-opacity:1;stroke-dasharray:none"
         sodipodi:type="arc" />
      <path
         transform="translate(3.3787127,-0.20272289)"
         d="m 5.4059408,7.1477723 c 0,0.161721 -0.080677,0.2928218 -0.180198,0.2928218 -0.099521,0 -0.180198,-0.1311008 -0.180198,-0.2928218 0,-0.161721 0.080677,-0.2928218 0.180198,-0.2928218 0.099521,0 0.180198,0.1311008 0.180198,0.2928218 z"
         sodipodi:ry="0.29282179"
         sodipodi:rx="0.18019803"
         sodipodi:cy="7.1477723"
         sodipodi:cx="5.2257428"
         id="path3052-9"
         style="fill:#000000;fill-opacity:1;stroke:#000000;stroke-width:0.5;stroke-miterlimit:4;stroke-opacity:1;stroke-dasharray:none"
         sodipodi:type="arc" />
      <path
         transform="translate(1.80198,3.3111385)"
         d="m 5.4059408,7.1477723 c 0,0.161721 -0.080677,0.2928218 -0.180198,0.2928218 -0.099521,0 -0.180198,-0.1311008 -0.180198,-0.2928218 0,-0.161721 0.080677,-0.2928218 0.180198,-0.2928218 0.099521,0 0.180198,0.1311008 0.180198,0.2928218 z"
         sodipodi:ry="0.29282179"
         sodipodi:rx="0.18019803"
         sodipodi:cy="7.1477723"
         sodipodi:cx="5.2257428"
         id="path3052-8"
         style="fill:#000000;fill-opacity:1;stroke:#000000;stroke-width:0.5;stroke-miterlimit:4;stroke-opacity:1;stroke-dasharray:none"
         sodipodi:type="arc" />
      <path
         transform="translate(3.4688117,3.2210395)"
         d="m 5.4059408,7.1477723 c 0,0.161721 -0.080677,0.2928218 -0.180198,0.2928218 -0.099521,0 -0.180198,-0.1311008 -0.180198,-0.2928218 0,-0.161721 0.080677,-0.2928218 0.180198,-0.2928218 0.099521,0 0.180198,0.1311008 0.180198,0.2928218 z"
         sodipodi:ry="0.29282179"
         sodipodi:rx="0.18019803"
         sodipodi:cy="7.1477723"
         sodipodi:cx="5.2257428"
         id="path3052-8-1"
         style="fill:#000000;fill-opacity:1;stroke:#000000;stroke-width:0.5;stroke-miterlimit:4;stroke-opacity:1;stroke-dasharray:none"
         sodipodi:type="arc" />
      <path
         inkscape:connector-curvature="0"
         id="path3108"
         d="m 7.7935644,10.458911 0,1.396535"
         style="fill:none;stroke:#000000;stroke-width:1px;stroke-linecap:butt;stroke-linejoin:miter;stroke-opacity:1" />
      <path
         inkscape:connector-curvature="0"
         id="path3886"
         d="m 8.5143565,6.3594064 0,0 -0.360396,-0.8108911 -0.6306931,-0.04505 -0.3153465,0.8559406"
         style="fill:#000000;fill-opacity:1;stroke:#000000;stroke-width:0.1;stroke-linecap:butt;stroke-linejoin:miter;stroke-miterlimit:4;stroke-opacity:1;stroke-dasharray:none" />
      <path
         inkscape:connector-curvature="0"
         id="path3007"
         d="m 7.6584159,4.7376237 0.270297,0 L 8.19901,5.3232672 8.6044555,5.6386138 8.0638615,5.9990098 7.3881189,6.0440593 6.9826733,5.6386138 7.2529704,5.4584157 z"
         style="fill:#000000;fill-opacity:1;stroke:#000000;stroke-width:0.1;stroke-linecap:butt;stroke-linejoin:miter;stroke-miterlimit:4;stroke-opacity:1;stroke-dasharray:none" />
      <path
         inkscape:connector-curvature="0"
         id="path3777"
         d="M 7.3881189,5.9539603 6.8925743,5.4584157 6.9376238,5.0079207 7.8386139,5.7287128 8.6945545,5.0980197 8.6044555,5.6836633 8.108911,6.0440593 z"
         style="fill:#000000;fill-opacity:1;stroke:#000000;stroke-width:0.1;stroke-linecap:butt;stroke-linejoin:miter;stroke-miterlimit:4;stroke-opacity:1;stroke-dasharray:none" />
      <path
         transform="translate(21.218317,-1.6668317)"
         d="m -13.289604,6.3143563 c 0,0.074641 -0.06051,0.1351485 -0.135148,0.1351485 -0.07464,0 -0.135149,-0.060508 -0.135149,-0.1351485 0,-0.07464 0.06051,-0.1351485 0.135149,-0.1351485 0.07464,0 0.135148,0.060508 0.135148,0.1351485 z"
         sodipodi:ry="0.13514851"
         sodipodi:rx="0.13514851"
         sodipodi:cy="6.3143563"
         sodipodi:cx="-13.424752"
         id="path3779"
         style="fill:#000000;fill-opacity:1;stroke:#000000;stroke-width:0.1;stroke-miterlimit:4;stroke-opacity:1;stroke-dasharray:none"
         sodipodi:type="arc" />
      <path
         inkscape:connector-curvature="0"
         id="path3781"
         d="m 7.8836634,10.684158 0,1.036139 -0.4955445,1.306436 0,0"
         style="fill:none;stroke:#000000;stroke-width:0.40000001;stroke-linecap:butt;stroke-linejoin:miter;stroke-miterlimit:4;stroke-opacity:1;stroke-dasharray:none" />
    </g>
  </g>
</svg>
